# xmcd
#
# Track frame offsets:
#	150
#	21875
#	52012
#	67175
#	81800
#	103825
#	129070
#	153950
#	170650
#	193387
#	213892
#	229037
#
# Disc length: 3379 seconds
#
# Revision: 1
# Processed by: cddbd v1.5.2PL0 Copyright (c) Steve Scherf et al.
# Submitted via: audiograbber 1.83.01
#
DISCID=a40d310c
DTITLE=David Liebman - One Of A Kind
DYEAR=1990
DGENRE=Ethnic
TTITLE0=Remembrance
TTITLE1=Hiroshima Memorial
TTITLE2=Ethnic Suite: Semites
TTITLE3=Ethnic Suite: Indian Sunrise
TTITLE4=Real Self - Snake Charmer
TTITLE5=Trois Vanguard
TTITLE6=Vanguard
TTITLE7=Translucence
TTITLE8=Power Of The Cross
TTITLE9=Words
TTITLE10=Relentless
TTITLE11=Spirit
EXTD=
EXTT0=
EXTT1=
EXTT2=
EXTT3=
EXTT4=
EXTT5=
EXTT6=
EXTT7=
EXTT8=
EXTT9=
EXTT10=
EXTT11=
PLAYORDER=
